<svg xmlns="http://www.w3.org/2000/svg" viewBox="0 0 812 262" role="img" aria-label="DC-coupled front end with reference channel"><rect x="0" y="0" width="812" height="262" fill="#ffffff"/><g font-family="'Helvetica Neue',Helvetica,Arial,'Malgun Gothic',sans-serif" fill="#111111"><circle cx="68.0" cy="40.0" r="2.6" fill="#fff" stroke="#111111" stroke-width="0.85"/><line x1="71.0" y1="40.0" x2="150.0" y2="40.0" stroke="#111111" stroke-width="0.85"/><path d="M150,28 L150,68 L190,48 Z" fill="none" stroke="#111111" stroke-width="0.85"/><text x="155.0" y="44.0" font-size="9" fill="#111111" text-anchor="start">+</text><text x="155.0" y="61.0" font-size="9" fill="#111111" text-anchor="start">−</text><line x1="190.0" y1="48.0" x2="200.0" y2="48.0" stroke="#111111" stroke-width="0.85"/><line x1="200.0" y1="48.0" x2="200.0" y2="74.0" stroke="#111111" stroke-width="0.85"/><line x1="200.0" y1="74.0" x2="138.0" y2="74.0" stroke="#111111" stroke-width="0.85"/><line x1="138.0" y1="74.0" x2="138.0" y2="56.0" stroke="#111111" stroke-width="0.85"/><line x1="138.0" y1="56.0" x2="150.0" y2="56.0" stroke="#111111" stroke-width="0.85"/><circle cx="190.0" cy="48.0" r="1.9" fill="#111111"/><line x1="190.0" y1="48.0" x2="296.0" y2="48.0" stroke="#111111" stroke-width="0.85"/><text x="61.0" y="36.0" font-size="8.8" fill="#111111" text-anchor="end">E1</text><text x="61.0" y="46.0" font-size="7.4" fill="#111111" text-anchor="end">stem, upper</text><circle cx="68.0" cy="88.0" r="2.6" fill="#fff" stroke="#111111" stroke-width="0.85"/><line x1="71.0" y1="88.0" x2="150.0" y2="88.0" stroke="#111111" stroke-width="0.85"/><path d="M150,76 L150,116 L190,96 Z" fill="none" stroke="#111111" stroke-width="0.85"/><text x="155.0" y="92.0" font-size="9" fill="#111111" text-anchor="start">+</text><text x="155.0" y="109.0" font-size="9" fill="#111111" text-anchor="start">−</text><line x1="190.0" y1="96.0" x2="200.0" y2="96.0" stroke="#111111" stroke-width="0.85"/><line x1="200.0" y1="96.0" x2="200.0" y2="122.0" stroke="#111111" stroke-width="0.85"/><line x1="200.0" y1="122.0" x2="138.0" y2="122.0" stroke="#111111" stroke-width="0.85"/><line x1="138.0" y1="122.0" x2="138.0" y2="104.0" stroke="#111111" stroke-width="0.85"/><line x1="138.0" y1="104.0" x2="150.0" y2="104.0" stroke="#111111" stroke-width="0.85"/><circle cx="190.0" cy="96.0" r="1.9" fill="#111111"/><line x1="190.0" y1="96.0" x2="296.0" y2="96.0" stroke="#111111" stroke-width="0.85"/><text x="61.0" y="84.0" font-size="8.8" fill="#111111" text-anchor="end">E2</text><text x="61.0" y="94.0" font-size="7.4" fill="#111111" text-anchor="end">stem, lower</text><circle cx="68.0" cy="154.0" r="2.6" fill="#fff" stroke="#111111" stroke-width="0.85"/><line x1="71.0" y1="154.0" x2="150.0" y2="154.0" stroke="#111111" stroke-width="0.85"/><path d="M150,142 L150,182 L190,162 Z" fill="none" stroke="#111111" stroke-width="0.85"/><text x="155.0" y="158.0" font-size="9" fill="#111111" text-anchor="start">+</text><text x="155.0" y="175.0" font-size="9" fill="#111111" text-anchor="start">−</text><line x1="190.0" y1="162.0" x2="200.0" y2="162.0" stroke="#111111" stroke-width="0.85"/><line x1="200.0" y1="162.0" x2="200.0" y2="188.0" stroke="#111111" stroke-width="0.85"/><line x1="200.0" y1="188.0" x2="138.0" y2="188.0" stroke="#111111" stroke-width="0.85"/><line x1="138.0" y1="188.0" x2="138.0" y2="170.0" stroke="#111111" stroke-width="0.85"/><line x1="138.0" y1="170.0" x2="150.0" y2="170.0" stroke="#111111" stroke-width="0.85"/><circle cx="190.0" cy="162.0" r="1.9" fill="#111111"/><line x1="190.0" y1="162.0" x2="296.0" y2="162.0" stroke="#111111" stroke-width="0.85"/><text x="61.0" y="150.0" font-size="8.8" fill="#111111" text-anchor="end">E3</text><text x="61.0" y="160.0" font-size="7.4" fill="#111111" text-anchor="end">dummy</text><circle cx="68.0" cy="202.0" r="2.6" fill="#fff" stroke="#111111" stroke-width="0.85"/><line x1="71.0" y1="202.0" x2="150.0" y2="202.0" stroke="#111111" stroke-width="0.85"/><path d="M150,190 L150,230 L190,210 Z" fill="none" stroke="#111111" stroke-width="0.85"/><text x="155.0" y="206.0" font-size="9" fill="#111111" text-anchor="start">+</text><text x="155.0" y="223.0" font-size="9" fill="#111111" text-anchor="start">−</text><line x1="190.0" y1="210.0" x2="200.0" y2="210.0" stroke="#111111" stroke-width="0.85"/><line x1="200.0" y1="210.0" x2="200.0" y2="236.0" stroke="#111111" stroke-width="0.85"/><line x1="200.0" y1="236.0" x2="138.0" y2="236.0" stroke="#111111" stroke-width="0.85"/><line x1="138.0" y1="236.0" x2="138.0" y2="218.0" stroke="#111111" stroke-width="0.85"/><line x1="138.0" y1="218.0" x2="150.0" y2="218.0" stroke="#111111" stroke-width="0.85"/><circle cx="190.0" cy="210.0" r="1.9" fill="#111111"/><line x1="190.0" y1="210.0" x2="296.0" y2="210.0" stroke="#111111" stroke-width="0.85"/><text x="61.0" y="198.0" font-size="8.8" fill="#111111" text-anchor="end">E4</text><text x="61.0" y="208.0" font-size="7.4" fill="#111111" text-anchor="end">dummy</text><text x="6.0" y="15.0" font-size="8.6" fill="#111111" text-anchor="start" font-style="italic">plant pair</text><text x="6.0" y="139.0" font-size="8.6" fill="#111111" text-anchor="start" font-style="italic">reference pair — dummy electrodes</text><rect x="296" y="20" width="196" height="212" fill="none" stroke="#111111" stroke-width="0.85"/><text x="394.0" y="34.0" font-size="9.6" fill="#111111" text-anchor="middle">ADS1115</text><rect x="318" y="42" width="38" height="174" fill="none" stroke="#111111" stroke-width="0.85"/><text x="337.0" y="118.0" font-size="8" fill="#111111" text-anchor="middle">M</text><text x="337.0" y="129.0" font-size="8" fill="#111111" text-anchor="middle">U</text><text x="337.0" y="140.0" font-size="8" fill="#111111" text-anchor="middle">X</text><text x="301.0" y="51.0" font-size="8.2" fill="#111111" text-anchor="start">A0</text><line x1="296.0" y1="48.0" x2="318.0" y2="48.0" stroke="#111111" stroke-width="0.85"/><text x="301.0" y="99.0" font-size="8.2" fill="#111111" text-anchor="start">A1</text><line x1="296.0" y1="96.0" x2="318.0" y2="96.0" stroke="#111111" stroke-width="0.85"/><text x="301.0" y="165.0" font-size="8.2" fill="#111111" text-anchor="start">A2</text><line x1="296.0" y1="162.0" x2="318.0" y2="162.0" stroke="#111111" stroke-width="0.85"/><text x="301.0" y="213.0" font-size="8.2" fill="#111111" text-anchor="start">A3</text><line x1="296.0" y1="210.0" x2="318.0" y2="210.0" stroke="#111111" stroke-width="0.85"/><rect x="372" y="110" width="48" height="38" fill="none" stroke="#111111" stroke-width="0.85"/><text x="396.0" y="124.0" font-size="8" fill="#111111" text-anchor="middle">PGA</text><text x="396.0" y="136.0" font-size="8" fill="#111111" text-anchor="middle">× 16</text><line x1="356.0" y1="129.0" x2="372.0" y2="129.0" stroke="#111111" stroke-width="0.85"/><rect x="434" y="110" width="48" height="38" fill="none" stroke="#111111" stroke-width="0.85"/><text x="458.0" y="124.0" font-size="8" fill="#111111" text-anchor="middle">ΔΣ</text><text x="458.0" y="136.0" font-size="8" fill="#111111" text-anchor="middle">16-bit</text><line x1="420.0" y1="129.0" x2="434.0" y2="129.0" stroke="#111111" stroke-width="0.85"/><text x="394.0" y="224.0" font-size="7.8" fill="#111111" text-anchor="middle">±256 mV full scale · 7.81 µV / LSB</text><line x1="482.0" y1="129.0" x2="532.0" y2="129.0" stroke="#111111" stroke-width="0.85"/><path d="M526,126 L532,129 L526,132 Z" fill="#111111"/><text x="498.0" y="123.0" font-size="8.2" fill="#111111" text-anchor="start">I²C</text><text x="496.0" y="145.0" font-size="8.2" fill="#111111" text-anchor="start">Raspberry Pi 5</text><line x1="642.0" y1="40.0" x2="694.0" y2="40.0" stroke="#111111" stroke-width="0.85"/><text x="642.0" y="34.0" font-size="8.6" fill="#111111" text-anchor="start">3.3 V</text><line x1="668.0" y1="40.0" x2="668.0" y2="60.0" stroke="#111111" stroke-width="0.85"/><rect x="661" y="60" width="14" height="46" fill="none" stroke="#111111" stroke-width="0.85"/><text x="680.0" y="87.0" font-size="8.2" fill="#111111" text-anchor="start">100 kΩ</text><rect x="661" y="148" width="14" height="46" fill="none" stroke="#111111" stroke-width="0.85"/><text x="680.0" y="175.0" font-size="8.2" fill="#111111" text-anchor="start">100 kΩ</text><line x1="668.0" y1="106.0" x2="668.0" y2="148.0" stroke="#111111" stroke-width="0.85"/><line x1="668.0" y1="194.0" x2="668.0" y2="224.0" stroke="#111111" stroke-width="0.85"/><circle cx="668.0" cy="128.0" r="1.9" fill="#111111"/><line x1="668.0" y1="128.0" x2="750.0" y2="128.0" stroke="#111111" stroke-width="0.85"/><circle cx="753.0" cy="128.0" r="2.6" fill="#fff" stroke="#111111" stroke-width="0.85"/><text x="760.0" y="124.0" font-size="8.8" fill="#111111" text-anchor="start">soil</text><text x="760.0" y="134.0" font-size="7.4" fill="#111111" text-anchor="start">reference</text><circle cx="712.0" cy="128.0" r="1.9" fill="#111111"/><line x1="712.0" y1="128.0" x2="712.0" y2="158.0" stroke="#111111" stroke-width="0.85"/><line x1="702" y1="158" x2="722" y2="158" stroke="#111111" stroke-width="1.1"/><line x1="702" y1="164" x2="722" y2="164" stroke="#111111" stroke-width="1.1"/><text x="726.0" y="165.0" font-size="8.2" fill="#111111" text-anchor="start">0.1 µF</text><line x1="712.0" y1="164.0" x2="712.0" y2="224.0" stroke="#111111" stroke-width="0.85"/><line x1="668.0" y1="224.0" x2="712.0" y2="224.0" stroke="#111111" stroke-width="0.85"/><line x1="677.0" y1="224.0" x2="703.0" y2="224.0" stroke="#111111" stroke-width="1.2"/><line x1="682.0" y1="228.5" x2="698.0" y2="228.5" stroke="#111111" stroke-width="0.85"/><line x1="686.5" y1="233.0" x2="693.5" y2="233.0" stroke="#111111" stroke-width="0.85"/><text x="6.0" y="254.0" font-size="8.2" fill="#111111" text-anchor="start">MCP6002 × 2 (unity-gain buffers) · 3.3 V single supply · 0.1 µF decoupling</text></g></svg>